<svg width="134" height="28" viewBox="0 0 134 28" fill="none" xmlns="http://www.w3.org/2000/svg">
<g clip-path="url(#clip0_569_29016)">
  <!-- Leaf Shape -->
  <path d="M14 14C14 18.4183 10.4183 22 6 22C1.58172 22 0 18.4183 0 14C0 9.58172 1.58172 6 6 6C10.4183 6 14 9.58172 14 14Z" fill="#4CAF50"/>
  <path d="M20 14C20 18.4183 16.4183 22 12 22C7.58172 22 6 18.4183 6 14C6 9.58172 7.58172 6 12 6C16.4183 6 20 9.58172 20 14Z" fill="#8BC34A"/>
  
  <!-- Apple Shape -->
  <path d="M30 14C30 19.5228 25.5228 24 20 24C14.4772 24 10 19.5228 10 14C10 8.47715 14.4772 4 20 4C25.5228 4 30 8.47715 30 14Z" fill="#FF5722"/>
  <circle cx="20" cy="14" r="4" fill="#FFFFFF"/>
  
  <!-- Carrot Shape -->
  <path d="M45 14L50 24L55 14H45Z" fill="#FF9800"/>
  <path d="M50 24L52 20L54 24H50Z" fill="#FFC107"/>
  
  <!-- Text: "Healthy Choices" -->
  <text x="65" y="20" font-family="Arial, sans-serif" font-size="12" fill="#333333">Healthy Choices</text>
</g>
<defs>
  <clipPath id="clip0_569_29016">
    <rect width="134" height="28" fill="white"/>
  </clipPath>
</defs>
</svg>